# xmcd
#
# Track frame offsets:
#	150
#	18518
#	46828
#	69921
#	91771
#	110909
#	135899
#	157073
#	177245
#	194530
#	217020
#	241395
#	258261
#	284057
#
# Disc length: 4029 seconds
#
# Revision: 0
# Processed by: cddbd v1.5.2PL0 Copyright (c) Steve Scherf et al.
# Submitted via: dBpowerAMP V4.0
#
DISCID=ca0fbb0e
DTITLE=BLUES AND BEYOND - HORIZONS
DYEAR=2005
DGENRE=Blues
TTITLE0=KEY TO THE HIGHWAY
TTITLE1=I WONDER
TTITLE2=DON´T LET ME BE LONELY TONIGTH
TTITLE3=HELP THE POOR
TTITLE4=SONG OF THE SEA
TTITLE5=STORMY MONDAY
TTITLE6=CHAIN LIGTHNING
TTITLE7=DROWN IN MY OWN TEARS
TTITLE8=PRISIONERS ON THE ROAD
TTITLE9=JUMPING AT SHADOWS
TTITLE10=MOONDANCE
TTITLE11=DARKER SIDE
TTITLE12=SPOOKY
TTITLE13=SUMMERTIME
EXTD=BLUES AND BEYOND - Horizons\nRecorded at Toro Records. Torre del Mar, Málaga, Spain\nAugust 2005\n
EXTT0=
EXTT1=
EXTT2=
EXTT3=
EXTT4=
EXTT5=
EXTT6=
EXTT7=
EXTT8=
EXTT9=
EXTT10=
EXTT11=
EXTT12=
EXTT13=
PLAYORDER=
